User Type,Username,Date,Text
,z0rga,2007-09-09T12:25Z,this is one hella movie
,Tiksula,2008-05-12T16:15Z,"Thanks, man!"
,UndeadTed,2008-08-30T12:00Z,This movie is beautiful. Emotionally moving and stuff - and coming from a blackheart like me this is saying a lot.
,piratloler,2009-01-16T04:13Z,Thanks Tod!
,ppptest,2009-12-08T13:12Z,Thank you.
,Incamal,2010-11-11T16:02Z,"F:\azad\Holy Molly\Movies\Last Night\Last Night.avi
   General
      Complete name : F:\azad\Holy Molly\Movies\Last Night\Last Night.avi
      Format : AVI
      Format/Info : Audio Video Interleave
      File size : 683 MiB
      Duration : 1h 34mn
      Overall bit rate : 1 014 Kbps
      Writing library : VirtualDub build 13130/release
   Video #0
      ID : 0
      Format : MPEG-4 Visual
      Format settings, BVOP : Yes
      Format settings, QPel : No
      Format settings, GMC : No warppoints
      Format settings, Matrix : Default (H.263)
      Muxing mode : Packed bitstream
      Codec ID : DX50
      Codec ID/Hint : DivX 5
      Duration : 1h 34mn
      Bit rate : 874 Kbps
      Width : 640 pixels
      Height : 480 pixels
      Display aspect ratio : 4:3
      Frame rate : 29.970 fps
      Resolution : 24 bits
      Scan type : Progressive
      Bits/(Pixel*Frame) : 0.095
      Stream size : 589 MiB (86%)
      Writing library : DivX 5.1.1 (Maupiti) (UTC 2003-11-19)
   Audio #1
      ID : 1
      Format : MPEG Audio
      Format version : Version 1
      Format profile : Layer 3
      Codec ID : 55
      Codec ID/Hint : MP3
      Duration : 1h 34mn
      Bit rate mode : Constant
      Bit rate : 128 Kbps
      Channel(s) : 2 channels
      Sampling rate : 44.1 KHz
      Resolution : 16 bits
      Video delay : 11ms
      Stream size : 86.2 MiB (13%)
      Alignment : Split accross interleaves
      Interleave, duration : 33 ms (1.00 video frame)
      Interleave, preload duration : 500 ms"
,mitjak,2011-03-21T04:43Z,Oh my oh my! Did not expect this on here. Promptly downloading. Superb movie.
,adp28,2011-03-22T16:58Z,Thanks for the movie
,EnaCook,2011-06-20T01:01Z,"Weird and beautiful. Makes you wonder, how would YOU spend it?
Thanks."
